<svg width="182" height="127" viewBox="0 0 182 127" fill="none" xmlns="http://www.w3.org/2000/svg">
<rect width="182" height="127" fill="white"/>
<path d="M38.08 55H47L52.16 58.7L57.32 55H66.24L56.62 61.9L66.52 69H57.6L52.16 65.1L46.72 69H37.8L47.7 61.9L38.08 55ZM87.1219 59.8H74.0419V61.4H87.1219C87.6819 61.4 88.0019 61.1 88.0019 60.6C88.0019 60.1 87.6819 59.8 87.1219 59.8ZM74.0419 69H67.7219V55H88.7219C92.2219 55 94.3219 57.8 94.3219 60.6C94.3219 63.4 92.2219 66.2 88.7219 66.2H74.0419V69ZM95.3195 69V55H101.64V64.2H119.32V69H95.3195ZM125.673 69V64.2L113.933 55H122.273L128.833 60.16L135.393 55H143.733L131.993 64.2V69H125.673Z" fill="black"/>
</svg>
