<svg width="182" height="26" viewBox="0 0 182 26" fill="none" xmlns="http://www.w3.org/2000/svg">
<path d="M-1.056 0.799998H15L24.288 7.46L33.576 0.799998H49.632L32.316 13.22L50.136 26H34.08L24.288 18.98L14.496 26H-1.56L16.26 13.22L-1.056 0.799998ZM87.2194 9.44H63.6754V12.32H87.2194C88.2274 12.32 88.8034 11.78 88.8034 10.88C88.8034 9.98 88.2274 9.44 87.2194 9.44ZM63.6754 26H52.2994V0.799998H90.0994C96.3994 0.799998 100.179 5.84 100.179 10.88C100.179 15.92 96.3994 20.96 90.0994 20.96H63.6754V26ZM101.975 26V0.799998H113.351V17.36H145.175V26H101.975ZM156.611 26V17.36L135.479 0.799998H150.491L162.299 10.088L174.107 0.799998H189.119L167.987 17.36V26H156.611Z" fill="black"/>
</svg>
